<svg width="507" height="391" viewBox="0 0 507 391" fill="none" xmlns="http://www.w3.org/2000/svg">
<g opacity="0.275391">
<path fill-rule="evenodd" clip-rule="evenodd" d="M0.00244141 386C0.00244141 388.762 2.24087 391 5.00244 391C7.76333 391 10.0024 388.762 10.0024 386C10.0024 383.239 7.76333 381 5.00244 381C2.24087 381 0.00244141 383.239 0.00244141 386Z" fill="white" fill-opacity="0.55"/>
<path fill-rule="evenodd" clip-rule="evenodd" d="M31.6855 386C31.6855 388.762 33.924 391 36.6855 391C39.4464 391 41.6855 388.762 41.6855 386C41.6855 383.239 39.4464 381 36.6855 381C33.924 381 31.6855 383.239 31.6855 386Z" fill="white" fill-opacity="0.55"/>
<path fill-rule="evenodd" clip-rule="evenodd" d="M63.3687 386C63.3687 388.762 65.6071 391 68.3687 391C71.1302 391 73.3687 388.762 73.3687 386C73.3687 383.239 71.1302 381 68.3687 381C65.6071 381 63.3687 383.239 63.3687 386Z" fill="white" fill-opacity="0.55"/>
<path fill-rule="evenodd" clip-rule="evenodd" d="M95.0518 386C95.0518 388.762 97.2909 391 100.052 391C102.813 391 105.052 388.762 105.052 386C105.052 383.239 102.813 381 100.052 381C97.2909 381 95.0518 383.239 95.0518 386Z" fill="white" fill-opacity="0.55"/>
<path fill-rule="evenodd" clip-rule="evenodd" d="M126.735 386C126.735 388.762 128.973 391 131.735 391C134.496 391 136.735 388.762 136.735 386C136.735 383.239 134.496 381 131.735 381C128.973 381 126.735 383.239 126.735 386Z" fill="white" fill-opacity="0.55"/>
<path fill-rule="evenodd" clip-rule="evenodd" d="M158.418 386C158.418 388.762 160.657 391 163.418 391C166.18 391 168.418 388.762 168.418 386C168.418 383.239 166.18 381 163.418 381C160.657 381 158.418 383.239 158.418 386Z" fill="white" fill-opacity="0.55"/>
<path fill-rule="evenodd" clip-rule="evenodd" d="M190.101 386C190.101 388.762 192.34 391 195.101 391C197.863 391 200.101 388.762 200.101 386C200.101 383.239 197.863 381 195.101 381C192.34 381 190.101 383.239 190.101 386Z" fill="white" fill-opacity="0.55"/>
<path fill-rule="evenodd" clip-rule="evenodd" d="M221.784 386C221.784 388.762 224.023 391 226.784 391C229.546 391 231.784 388.762 231.784 386C231.784 383.239 229.546 381 226.784 381C224.023 381 221.784 383.239 221.784 386Z" fill="white" fill-opacity="0.55"/>
<path fill-rule="evenodd" clip-rule="evenodd" d="M253.467 386C253.467 388.762 255.706 391 258.468 391C261.229 391 263.467 388.762 263.467 386C263.467 383.239 261.229 381 258.468 381C255.706 381 253.467 383.239 253.467 386Z" fill="white" fill-opacity="0.55"/>
<path fill-rule="evenodd" clip-rule="evenodd" d="M285.15 386C285.15 388.762 287.39 391 290.151 391C292.912 391 295.15 388.762 295.15 386C295.15 383.239 292.912 381 290.151 381C287.39 381 285.15 383.239 285.15 386Z" fill="white" fill-opacity="0.55"/>
<path fill-rule="evenodd" clip-rule="evenodd" d="M316.834 386C316.834 388.762 319.073 391 321.834 391C324.595 391 326.834 388.762 326.834 386C326.834 383.239 324.595 381 321.834 381C319.073 381 316.834 383.239 316.834 386Z" fill="white" fill-opacity="0.55"/>
<path fill-rule="evenodd" clip-rule="evenodd" d="M348.518 386C348.518 388.762 350.756 391 353.518 391C356.278 391 358.518 388.762 358.518 386C358.518 383.239 356.278 381 353.518 381C350.756 381 348.518 383.239 348.518 386Z" fill="white" fill-opacity="0.55"/>
<path fill-rule="evenodd" clip-rule="evenodd" d="M380.2 386C380.2 388.762 382.439 391 385.2 391C387.962 391 390.2 388.762 390.2 386C390.2 383.239 387.962 381 385.2 381C382.439 381 380.2 383.239 380.2 386Z" fill="white" fill-opacity="0.55"/>
<path fill-rule="evenodd" clip-rule="evenodd" d="M411.883 386C411.883 388.762 414.122 391 416.883 391C419.645 391 421.883 388.762 421.883 386C421.883 383.239 419.645 381 416.883 381C414.122 381 411.883 383.239 411.883 386Z" fill="white" fill-opacity="0.55"/>
<path fill-rule="evenodd" clip-rule="evenodd" d="M443.566 386C443.566 388.762 445.806 391 448.566 391C451.328 391 453.566 388.762 453.566 386C453.566 383.239 451.328 381 448.566 381C445.806 381 443.566 383.239 443.566 386Z" fill="white" fill-opacity="0.55"/>
<path fill-rule="evenodd" clip-rule="evenodd" d="M470.25 386C470.25 388.762 472.489 391 475.25 391C478.011 391 480.25 388.762 480.25 386C480.25 383.239 478.011 381 475.25 381C472.489 381 470.25 383.239 470.25 386Z" fill="white" fill-opacity="0.55"/>
<path fill-rule="evenodd" clip-rule="evenodd" d="M496.933 386C496.933 388.762 499.172 391 501.933 391C504.694 391 506.933 388.762 506.933 386C506.933 383.239 504.694 381 501.933 381C499.172 381 496.933 383.239 496.933 386Z" fill="white" fill-opacity="0.55"/>
<path fill-rule="evenodd" clip-rule="evenodd" d="M0.00244141 354.316C0.00244141 357.078 2.24087 359.316 5.00244 359.316C7.76333 359.316 10.0024 357.078 10.0024 354.316C10.0024 351.555 7.76333 349.316 5.00244 349.316C2.24087 349.316 0.00244141 351.555 0.00244141 354.316Z" fill="white" fill-opacity="0.55"/>
<path fill-rule="evenodd" clip-rule="evenodd" d="M31.6855 354.316C31.6855 357.078 33.924 359.316 36.6855 359.316C39.4464 359.316 41.6855 357.078 41.6855 354.316C41.6855 351.555 39.4464 349.316 36.6855 349.316C33.924 349.316 31.6855 351.555 31.6855 354.316Z" fill="white" fill-opacity="0.55"/>
<path fill-rule="evenodd" clip-rule="evenodd" d="M63.3687 354.316C63.3687 357.078 65.6071 359.316 68.3687 359.316C71.1302 359.316 73.3687 357.078 73.3687 354.316C73.3687 351.555 71.1302 349.316 68.3687 349.316C65.6071 349.316 63.3687 351.555 63.3687 354.316Z" fill="white" fill-opacity="0.55"/>
<path fill-rule="evenodd" clip-rule="evenodd" d="M95.0518 354.316C95.0518 357.078 97.2909 359.316 100.052 359.316C102.813 359.316 105.052 357.078 105.052 354.316C105.052 351.555 102.813 349.316 100.052 349.316C97.2909 349.316 95.0518 351.555 95.0518 354.316Z" fill="white" fill-opacity="0.55"/>
<path fill-rule="evenodd" clip-rule="evenodd" d="M126.735 354.316C126.735 357.078 128.973 359.316 131.735 359.316C134.496 359.316 136.735 357.078 136.735 354.316C136.735 351.555 134.496 349.316 131.735 349.316C128.973 349.316 126.735 351.555 126.735 354.316Z" fill="white" fill-opacity="0.55"/>
<path fill-rule="evenodd" clip-rule="evenodd" d="M158.418 354.316C158.418 357.078 160.657 359.316 163.418 359.316C166.18 359.316 168.418 357.078 168.418 354.316C168.418 351.555 166.18 349.316 163.418 349.316C160.657 349.316 158.418 351.555 158.418 354.316Z" fill="white" fill-opacity="0.55"/>
<path fill-rule="evenodd" clip-rule="evenodd" d="M190.101 354.316C190.101 357.078 192.34 359.316 195.101 359.316C197.863 359.316 200.101 357.078 200.101 354.316C200.101 351.555 197.863 349.316 195.101 349.316C192.34 349.316 190.101 351.555 190.101 354.316Z" fill="white" fill-opacity="0.55"/>
<path fill-rule="evenodd" clip-rule="evenodd" d="M221.784 354.316C221.784 357.078 224.023 359.316 226.784 359.316C229.546 359.316 231.784 357.078 231.784 354.316C231.784 351.555 229.546 349.316 226.784 349.316C224.023 349.316 221.784 351.555 221.784 354.316Z" fill="white" fill-opacity="0.55"/>
<path fill-rule="evenodd" clip-rule="evenodd" d="M253.467 354.316C253.467 357.078 255.706 359.316 258.468 359.316C261.229 359.316 263.467 357.078 263.467 354.316C263.467 351.555 261.229 349.316 258.468 349.316C255.706 349.316 253.467 351.555 253.467 354.316Z" fill="white" fill-opacity="0.55"/>
<path fill-rule="evenodd" clip-rule="evenodd" d="M285.15 354.316C285.15 357.078 287.39 359.316 290.151 359.316C292.912 359.316 295.15 357.078 295.15 354.316C295.15 351.555 292.912 349.316 290.151 349.316C287.39 349.316 285.15 351.555 285.15 354.316Z" fill="white" fill-opacity="0.55"/>
<path fill-rule="evenodd" clip-rule="evenodd" d="M316.834 354.316C316.834 357.078 319.073 359.316 321.834 359.316C324.595 359.316 326.834 357.078 326.834 354.316C326.834 351.555 324.595 349.316 321.834 349.316C319.073 349.316 316.834 351.555 316.834 354.316Z" fill="white" fill-opacity="0.55"/>
<path fill-rule="evenodd" clip-rule="evenodd" d="M348.518 354.316C348.518 357.078 350.756 359.316 353.518 359.316C356.278 359.316 358.518 357.078 358.518 354.316C358.518 351.555 356.278 349.316 353.518 349.316C350.756 349.316 348.518 351.555 348.518 354.316Z" fill="white" fill-opacity="0.55"/>
<path fill-rule="evenodd" clip-rule="evenodd" d="M380.2 354.316C380.2 357.078 382.439 359.316 385.2 359.316C387.962 359.316 390.2 357.078 390.2 354.316C390.2 351.555 387.962 349.316 385.2 349.316C382.439 349.316 380.2 351.555 380.2 354.316Z" fill="white" fill-opacity="0.55"/>
<path fill-rule="evenodd" clip-rule="evenodd" d="M411.883 354.316C411.883 357.078 414.122 359.316 416.883 359.316C419.645 359.316 421.883 357.078 421.883 354.316C421.883 351.555 419.645 349.316 416.883 349.316C414.122 349.316 411.883 351.555 411.883 354.316Z" fill="white" fill-opacity="0.55"/>
<path fill-rule="evenodd" clip-rule="evenodd" d="M443.566 354.316C443.566 357.078 445.806 359.316 448.566 359.316C451.328 359.316 453.566 357.078 453.566 354.316C453.566 351.555 451.328 349.316 448.566 349.316C445.806 349.316 443.566 351.555 443.566 354.316Z" fill="white" fill-opacity="0.55"/>
<path fill-rule="evenodd" clip-rule="evenodd" d="M470.25 354.316C470.25 357.078 472.489 359.316 475.25 359.316C478.011 359.316 480.25 357.078 480.25 354.316C480.25 351.555 478.011 349.316 475.25 349.316C472.489 349.316 470.25 351.555 470.25 354.316Z" fill="white" fill-opacity="0.55"/>
<path fill-rule="evenodd" clip-rule="evenodd" d="M496.933 354.316C496.933 357.078 499.172 359.316 501.933 359.316C504.694 359.316 506.933 357.078 506.933 354.316C506.933 351.555 504.694 349.316 501.933 349.316C499.172 349.316 496.933 351.555 496.933 354.316Z" fill="white" fill-opacity="0.55"/>
<path fill-rule="evenodd" clip-rule="evenodd" d="M0.00244141 322.633C0.00244141 325.394 2.24087 327.633 5.00244 327.633C7.76333 327.633 10.0024 325.394 10.0024 322.633C10.0024 319.871 7.76333 317.633 5.00244 317.633C2.24087 317.633 0.00244141 319.871 0.00244141 322.633Z" fill="white" fill-opacity="0.55"/>
<path fill-rule="evenodd" clip-rule="evenodd" d="M31.6855 322.633C31.6855 325.394 33.924 327.633 36.6855 327.633C39.4464 327.633 41.6855 325.394 41.6855 322.633C41.6855 319.871 39.4464 317.633 36.6855 317.633C33.924 317.633 31.6855 319.871 31.6855 322.633Z" fill="white" fill-opacity="0.55"/>
<path fill-rule="evenodd" clip-rule="evenodd" d="M63.3687 322.633C63.3687 325.394 65.6071 327.633 68.3687 327.633C71.1302 327.633 73.3687 325.394 73.3687 322.633C73.3687 319.871 71.1302 317.633 68.3687 317.633C65.6071 317.633 63.3687 319.871 63.3687 322.633Z" fill="white" fill-opacity="0.55"/>
<path fill-rule="evenodd" clip-rule="evenodd" d="M95.0518 322.633C95.0518 325.394 97.2909 327.633 100.052 327.633C102.813 327.633 105.052 325.394 105.052 322.633C105.052 319.871 102.813 317.633 100.052 317.633C97.2909 317.633 95.0518 319.871 95.0518 322.633Z" fill="white" fill-opacity="0.55"/>
<path fill-rule="evenodd" clip-rule="evenodd" d="M126.735 322.633C126.735 325.394 128.973 327.633 131.735 327.633C134.496 327.633 136.735 325.394 136.735 322.633C136.735 319.871 134.496 317.633 131.735 317.633C128.973 317.633 126.735 319.871 126.735 322.633Z" fill="white" fill-opacity="0.55"/>
<path fill-rule="evenodd" clip-rule="evenodd" d="M158.418 322.633C158.418 325.394 160.657 327.633 163.418 327.633C166.18 327.633 168.418 325.394 168.418 322.633C168.418 319.871 166.18 317.633 163.418 317.633C160.657 317.633 158.418 319.871 158.418 322.633Z" fill="white" fill-opacity="0.55"/>
<path fill-rule="evenodd" clip-rule="evenodd" d="M190.101 322.633C190.101 325.394 192.34 327.633 195.101 327.633C197.863 327.633 200.101 325.394 200.101 322.633C200.101 319.871 197.863 317.633 195.101 317.633C192.34 317.633 190.101 319.871 190.101 322.633Z" fill="white" fill-opacity="0.55"/>
<path fill-rule="evenodd" clip-rule="evenodd" d="M221.784 322.633C221.784 325.394 224.023 327.633 226.784 327.633C229.546 327.633 231.784 325.394 231.784 322.633C231.784 319.871 229.546 317.633 226.784 317.633C224.023 317.633 221.784 319.871 221.784 322.633Z" fill="white" fill-opacity="0.55"/>
<path fill-rule="evenodd" clip-rule="evenodd" d="M253.467 322.633C253.467 325.394 255.706 327.633 258.468 327.633C261.229 327.633 263.467 325.394 263.467 322.633C263.467 319.871 261.229 317.633 258.468 317.633C255.706 317.633 253.467 319.871 253.467 322.633Z" fill="white" fill-opacity="0.55"/>
<path fill-rule="evenodd" clip-rule="evenodd" d="M285.15 322.633C285.15 325.394 287.39 327.633 290.151 327.633C292.912 327.633 295.15 325.394 295.15 322.633C295.15 319.871 292.912 317.633 290.151 317.633C287.39 317.633 285.15 319.871 285.15 322.633Z" fill="white" fill-opacity="0.55"/>
<path fill-rule="evenodd" clip-rule="evenodd" d="M316.834 322.633C316.834 325.394 319.073 327.633 321.834 327.633C324.595 327.633 326.834 325.394 326.834 322.633C326.834 319.871 324.595 317.633 321.834 317.633C319.073 317.633 316.834 319.871 316.834 322.633Z" fill="white" fill-opacity="0.55"/>
<path fill-rule="evenodd" clip-rule="evenodd" d="M348.518 322.633C348.518 325.394 350.756 327.633 353.518 327.633C356.278 327.633 358.518 325.394 358.518 322.633C358.518 319.871 356.278 317.633 353.518 317.633C350.756 317.633 348.518 319.871 348.518 322.633Z" fill="white" fill-opacity="0.55"/>
<path fill-rule="evenodd" clip-rule="evenodd" d="M380.2 322.633C380.2 325.394 382.439 327.633 385.2 327.633C387.962 327.633 390.2 325.394 390.2 322.633C390.2 319.871 387.962 317.633 385.2 317.633C382.439 317.633 380.2 319.871 380.2 322.633Z" fill="white" fill-opacity="0.55"/>
<path fill-rule="evenodd" clip-rule="evenodd" d="M411.883 322.633C411.883 325.394 414.122 327.633 416.883 327.633C419.645 327.633 421.883 325.394 421.883 322.633C421.883 319.871 419.645 317.633 416.883 317.633C414.122 317.633 411.883 319.871 411.883 322.633Z" fill="white" fill-opacity="0.55"/>
<path fill-rule="evenodd" clip-rule="evenodd" d="M443.566 322.633C443.566 325.394 445.806 327.633 448.566 327.633C451.328 327.633 453.566 325.394 453.566 322.633C453.566 319.871 451.328 317.633 448.566 317.633C445.806 317.633 443.566 319.871 443.566 322.633Z" fill="white" fill-opacity="0.55"/>
<path fill-rule="evenodd" clip-rule="evenodd" d="M470.25 322.633C470.25 325.394 472.489 327.633 475.25 327.633C478.011 327.633 480.25 325.394 480.25 322.633C480.25 319.871 478.011 317.633 475.25 317.633C472.489 317.633 470.25 319.871 470.25 322.633Z" fill="white" fill-opacity="0.55"/>
<path fill-rule="evenodd" clip-rule="evenodd" d="M496.933 322.633C496.933 325.394 499.172 327.633 501.933 327.633C504.694 327.633 506.933 325.394 506.933 322.633C506.933 319.871 504.694 317.633 501.933 317.633C499.172 317.633 496.933 319.871 496.933 322.633Z" fill="white" fill-opacity="0.55"/>
<path fill-rule="evenodd" clip-rule="evenodd" d="M0.00244141 290.949C0.00244141 293.711 2.24087 295.949 5.00244 295.949C7.76333 295.949 10.0024 293.711 10.0024 290.949C10.0024 288.188 7.76333 285.949 5.00244 285.949C2.24087 285.949 0.00244141 288.188 0.00244141 290.949Z" fill="white" fill-opacity="0.55"/>
<path fill-rule="evenodd" clip-rule="evenodd" d="M31.6855 290.949C31.6855 293.711 33.924 295.949 36.6855 295.949C39.4464 295.949 41.6855 293.711 41.6855 290.949C41.6855 288.188 39.4464 285.949 36.6855 285.949C33.924 285.949 31.6855 288.188 31.6855 290.949Z" fill="white" fill-opacity="0.55"/>
<path fill-rule="evenodd" clip-rule="evenodd" d="M63.3687 290.949C63.3687 293.711 65.6071 295.949 68.3687 295.949C71.1302 295.949 73.3687 293.711 73.3687 290.949C73.3687 288.188 71.1302 285.949 68.3687 285.949C65.6071 285.949 63.3687 288.188 63.3687 290.949Z" fill="white" fill-opacity="0.55"/>
<path fill-rule="evenodd" clip-rule="evenodd" d="M95.0518 290.949C95.0518 293.711 97.2909 295.949 100.052 295.949C102.813 295.949 105.052 293.711 105.052 290.949C105.052 288.188 102.813 285.949 100.052 285.949C97.2909 285.949 95.0518 288.188 95.0518 290.949Z" fill="white" fill-opacity="0.55"/>
<path fill-rule="evenodd" clip-rule="evenodd" d="M126.735 290.949C126.735 293.711 128.973 295.949 131.735 295.949C134.496 295.949 136.735 293.711 136.735 290.949C136.735 288.188 134.496 285.949 131.735 285.949C128.973 285.949 126.735 288.188 126.735 290.949Z" fill="white" fill-opacity="0.55"/>
<path fill-rule="evenodd" clip-rule="evenodd" d="M158.418 290.949C158.418 293.711 160.657 295.949 163.418 295.949C166.18 295.949 168.418 293.711 168.418 290.949C168.418 288.188 166.18 285.949 163.418 285.949C160.657 285.949 158.418 288.188 158.418 290.949Z" fill="white" fill-opacity="0.55"/>
<path fill-rule="evenodd" clip-rule="evenodd" d="M190.101 290.949C190.101 293.711 192.34 295.949 195.101 295.949C197.863 295.949 200.101 293.711 200.101 290.949C200.101 288.188 197.863 285.949 195.101 285.949C192.34 285.949 190.101 288.188 190.101 290.949Z" fill="white" fill-opacity="0.55"/>
<path fill-rule="evenodd" clip-rule="evenodd" d="M221.784 290.949C221.784 293.711 224.023 295.949 226.784 295.949C229.546 295.949 231.784 293.711 231.784 290.949C231.784 288.188 229.546 285.949 226.784 285.949C224.023 285.949 221.784 288.188 221.784 290.949Z" fill="white" fill-opacity="0.55"/>
<path fill-rule="evenodd" clip-rule="evenodd" d="M253.467 290.949C253.467 293.711 255.706 295.949 258.468 295.949C261.229 295.949 263.467 293.711 263.467 290.949C263.467 288.188 261.229 285.949 258.468 285.949C255.706 285.949 253.467 288.188 253.467 290.949Z" fill="white" fill-opacity="0.55"/>
<path fill-rule="evenodd" clip-rule="evenodd" d="M285.15 290.949C285.15 293.711 287.39 295.949 290.151 295.949C292.912 295.949 295.15 293.711 295.15 290.949C295.15 288.188 292.912 285.949 290.151 285.949C287.39 285.949 285.15 288.188 285.15 290.949Z" fill="white" fill-opacity="0.55"/>
<path fill-rule="evenodd" clip-rule="evenodd" d="M316.834 290.949C316.834 293.711 319.073 295.949 321.834 295.949C324.595 295.949 326.834 293.711 326.834 290.949C326.834 288.188 324.595 285.949 321.834 285.949C319.073 285.949 316.834 288.188 316.834 290.949Z" fill="white" fill-opacity="0.55"/>
<path fill-rule="evenodd" clip-rule="evenodd" d="M348.518 290.949C348.518 293.711 350.756 295.949 353.518 295.949C356.278 295.949 358.518 293.711 358.518 290.949C358.518 288.188 356.278 285.949 353.518 285.949C350.756 285.949 348.518 288.188 348.518 290.949Z" fill="white" fill-opacity="0.55"/>
<path fill-rule="evenodd" clip-rule="evenodd" d="M380.2 290.949C380.2 293.711 382.439 295.949 385.2 295.949C387.962 295.949 390.2 293.711 390.2 290.949C390.2 288.188 387.962 285.949 385.2 285.949C382.439 285.949 380.2 288.188 380.2 290.949Z" fill="white" fill-opacity="0.55"/>
<path fill-rule="evenodd" clip-rule="evenodd" d="M411.883 290.949C411.883 293.711 414.122 295.949 416.883 295.949C419.645 295.949 421.883 293.711 421.883 290.949C421.883 288.188 419.645 285.949 416.883 285.949C414.122 285.949 411.883 288.188 411.883 290.949Z" fill="white" fill-opacity="0.55"/>
<path fill-rule="evenodd" clip-rule="evenodd" d="M443.566 290.949C443.566 293.711 445.806 295.949 448.566 295.949C451.328 295.949 453.566 293.711 453.566 290.949C453.566 288.188 451.328 285.949 448.566 285.949C445.806 285.949 443.566 288.188 443.566 290.949Z" fill="white" fill-opacity="0.55"/>
<path fill-rule="evenodd" clip-rule="evenodd" d="M470.25 290.949C470.25 293.711 472.489 295.949 475.25 295.949C478.011 295.949 480.25 293.711 480.25 290.949C480.25 288.188 478.011 285.949 475.25 285.949C472.489 285.949 470.25 288.188 470.25 290.949Z" fill="white" fill-opacity="0.55"/>
<path fill-rule="evenodd" clip-rule="evenodd" d="M496.933 290.949C496.933 293.711 499.172 295.949 501.933 295.949C504.694 295.949 506.933 293.711 506.933 290.949C506.933 288.188 504.694 285.949 501.933 285.949C499.172 285.949 496.933 288.188 496.933 290.949Z" fill="white" fill-opacity="0.55"/>
<path fill-rule="evenodd" clip-rule="evenodd" d="M0.00244141 259.266C0.00244141 262.027 2.24087 264.266 5.00244 264.266C7.76333 264.266 10.0024 262.027 10.0024 259.266C10.0024 256.504 7.76333 254.266 5.00244 254.266C2.24087 254.266 0.00244141 256.504 0.00244141 259.266Z" fill="white" fill-opacity="0.55"/>
<path fill-rule="evenodd" clip-rule="evenodd" d="M31.6855 259.266C31.6855 262.027 33.924 264.266 36.6855 264.266C39.4464 264.266 41.6855 262.027 41.6855 259.266C41.6855 256.504 39.4464 254.266 36.6855 254.266C33.924 254.266 31.6855 256.504 31.6855 259.266Z" fill="white" fill-opacity="0.55"/>
<path fill-rule="evenodd" clip-rule="evenodd" d="M63.3687 259.266C63.3687 262.027 65.6071 264.266 68.3687 264.266C71.1302 264.266 73.3687 262.027 73.3687 259.266C73.3687 256.504 71.1302 254.266 68.3687 254.266C65.6071 254.266 63.3687 256.504 63.3687 259.266Z" fill="white" fill-opacity="0.55"/>
<path fill-rule="evenodd" clip-rule="evenodd" d="M95.0518 259.266C95.0518 262.027 97.2909 264.266 100.052 264.266C102.813 264.266 105.052 262.027 105.052 259.266C105.052 256.504 102.813 254.266 100.052 254.266C97.2909 254.266 95.0518 256.504 95.0518 259.266Z" fill="white" fill-opacity="0.55"/>
<path fill-rule="evenodd" clip-rule="evenodd" d="M126.735 259.266C126.735 262.027 128.973 264.266 131.735 264.266C134.496 264.266 136.735 262.027 136.735 259.266C136.735 256.504 134.496 254.266 131.735 254.266C128.973 254.266 126.735 256.504 126.735 259.266Z" fill="white" fill-opacity="0.55"/>
<path fill-rule="evenodd" clip-rule="evenodd" d="M158.418 259.266C158.418 262.027 160.657 264.266 163.418 264.266C166.18 264.266 168.418 262.027 168.418 259.266C168.418 256.504 166.18 254.266 163.418 254.266C160.657 254.266 158.418 256.504 158.418 259.266Z" fill="white" fill-opacity="0.55"/>
<path fill-rule="evenodd" clip-rule="evenodd" d="M190.101 259.266C190.101 262.027 192.34 264.266 195.101 264.266C197.863 264.266 200.101 262.027 200.101 259.266C200.101 256.504 197.863 254.266 195.101 254.266C192.34 254.266 190.101 256.504 190.101 259.266Z" fill="white" fill-opacity="0.55"/>
<path fill-rule="evenodd" clip-rule="evenodd" d="M221.784 259.266C221.784 262.027 224.023 264.266 226.784 264.266C229.546 264.266 231.784 262.027 231.784 259.266C231.784 256.504 229.546 254.266 226.784 254.266C224.023 254.266 221.784 256.504 221.784 259.266Z" fill="white" fill-opacity="0.55"/>
<path fill-rule="evenodd" clip-rule="evenodd" d="M253.467 259.266C253.467 262.027 255.706 264.266 258.468 264.266C261.229 264.266 263.467 262.027 263.467 259.266C263.467 256.504 261.229 254.266 258.468 254.266C255.706 254.266 253.467 256.504 253.467 259.266Z" fill="white" fill-opacity="0.55"/>
<path fill-rule="evenodd" clip-rule="evenodd" d="M285.15 259.266C285.15 262.027 287.39 264.266 290.151 264.266C292.912 264.266 295.15 262.027 295.15 259.266C295.15 256.504 292.912 254.266 290.151 254.266C287.39 254.266 285.15 256.504 285.15 259.266Z" fill="white" fill-opacity="0.55"/>
<path fill-rule="evenodd" clip-rule="evenodd" d="M316.834 259.266C316.834 262.027 319.073 264.266 321.834 264.266C324.595 264.266 326.834 262.027 326.834 259.266C326.834 256.504 324.595 254.266 321.834 254.266C319.073 254.266 316.834 256.504 316.834 259.266Z" fill="white" fill-opacity="0.55"/>
<path fill-rule="evenodd" clip-rule="evenodd" d="M348.518 259.266C348.518 262.027 350.756 264.266 353.518 264.266C356.278 264.266 358.518 262.027 358.518 259.266C358.518 256.504 356.278 254.266 353.518 254.266C350.756 254.266 348.518 256.504 348.518 259.266Z" fill="white" fill-opacity="0.55"/>
<path fill-rule="evenodd" clip-rule="evenodd" d="M380.2 259.266C380.2 262.027 382.439 264.266 385.2 264.266C387.962 264.266 390.2 262.027 390.2 259.266C390.2 256.504 387.962 254.266 385.2 254.266C382.439 254.266 380.2 256.504 380.2 259.266Z" fill="white" fill-opacity="0.55"/>
<path fill-rule="evenodd" clip-rule="evenodd" d="M411.883 259.266C411.883 262.027 414.122 264.266 416.883 264.266C419.645 264.266 421.883 262.027 421.883 259.266C421.883 256.504 419.645 254.266 416.883 254.266C414.122 254.266 411.883 256.504 411.883 259.266Z" fill="white" fill-opacity="0.55"/>
<path fill-rule="evenodd" clip-rule="evenodd" d="M443.566 259.266C443.566 262.027 445.806 264.266 448.566 264.266C451.328 264.266 453.566 262.027 453.566 259.266C453.566 256.504 451.328 254.266 448.566 254.266C445.806 254.266 443.566 256.504 443.566 259.266Z" fill="white" fill-opacity="0.55"/>
<path fill-rule="evenodd" clip-rule="evenodd" d="M470.25 259.266C470.25 262.027 472.489 264.266 475.25 264.266C478.011 264.266 480.25 262.027 480.25 259.266C480.25 256.504 478.011 254.266 475.25 254.266C472.489 254.266 470.25 256.504 470.25 259.266Z" fill="white" fill-opacity="0.55"/>
<path fill-rule="evenodd" clip-rule="evenodd" d="M496.933 259.266C496.933 262.027 499.172 264.266 501.933 264.266C504.694 264.266 506.933 262.027 506.933 259.266C506.933 256.504 504.694 254.266 501.933 254.266C499.172 254.266 496.933 256.504 496.933 259.266Z" fill="white" fill-opacity="0.55"/>
<path fill-rule="evenodd" clip-rule="evenodd" d="M0.00244141 227.586C0.00244141 230.348 2.24087 232.586 5.00244 232.586C7.76333 232.586 10.0024 230.348 10.0024 227.586C10.0024 224.824 7.76333 222.586 5.00244 222.586C2.24087 222.586 0.00244141 224.824 0.00244141 227.586Z" fill="white" fill-opacity="0.55"/>
<path fill-rule="evenodd" clip-rule="evenodd" d="M31.6855 227.586C31.6855 230.348 33.924 232.586 36.6855 232.586C39.4464 232.586 41.6855 230.348 41.6855 227.586C41.6855 224.824 39.4464 222.586 36.6855 222.586C33.924 222.586 31.6855 224.824 31.6855 227.586Z" fill="white" fill-opacity="0.55"/>
<path fill-rule="evenodd" clip-rule="evenodd" d="M63.3687 227.586C63.3687 230.348 65.6071 232.586 68.3687 232.586C71.1302 232.586 73.3687 230.348 73.3687 227.586C73.3687 224.824 71.1302 222.586 68.3687 222.586C65.6071 222.586 63.3687 224.824 63.3687 227.586Z" fill="white" fill-opacity="0.55"/>
<path fill-rule="evenodd" clip-rule="evenodd" d="M95.0518 227.586C95.0518 230.348 97.2909 232.586 100.052 232.586C102.813 232.586 105.052 230.348 105.052 227.586C105.052 224.824 102.813 222.586 100.052 222.586C97.2909 222.586 95.0518 224.824 95.0518 227.586Z" fill="white" fill-opacity="0.55"/>
<path fill-rule="evenodd" clip-rule="evenodd" d="M126.735 227.586C126.735 230.348 128.973 232.586 131.735 232.586C134.496 232.586 136.735 230.348 136.735 227.586C136.735 224.824 134.496 222.586 131.735 222.586C128.973 222.586 126.735 224.824 126.735 227.586Z" fill="white" fill-opacity="0.55"/>
<path fill-rule="evenodd" clip-rule="evenodd" d="M158.418 227.586C158.418 230.348 160.657 232.586 163.418 232.586C166.18 232.586 168.418 230.348 168.418 227.586C168.418 224.824 166.18 222.586 163.418 222.586C160.657 222.586 158.418 224.824 158.418 227.586Z" fill="white" fill-opacity="0.55"/>
<path fill-rule="evenodd" clip-rule="evenodd" d="M190.101 227.586C190.101 230.348 192.34 232.586 195.101 232.586C197.863 232.586 200.101 230.348 200.101 227.586C200.101 224.824 197.863 222.586 195.101 222.586C192.34 222.586 190.101 224.824 190.101 227.586Z" fill="white" fill-opacity="0.55"/>
<path fill-rule="evenodd" clip-rule="evenodd" d="M221.784 227.586C221.784 230.348 224.023 232.586 226.784 232.586C229.546 232.586 231.784 230.348 231.784 227.586C231.784 224.824 229.546 222.586 226.784 222.586C224.023 222.586 221.784 224.824 221.784 227.586Z" fill="white" fill-opacity="0.55"/>
<path fill-rule="evenodd" clip-rule="evenodd" d="M253.467 227.586C253.467 230.348 255.706 232.586 258.468 232.586C261.229 232.586 263.467 230.348 263.467 227.586C263.467 224.824 261.229 222.586 258.468 222.586C255.706 222.586 253.467 224.824 253.467 227.586Z" fill="white" fill-opacity="0.55"/>
<path fill-rule="evenodd" clip-rule="evenodd" d="M285.15 227.586C285.15 230.348 287.39 232.586 290.151 232.586C292.912 232.586 295.15 230.348 295.15 227.586C295.15 224.824 292.912 222.586 290.151 222.586C287.39 222.586 285.15 224.824 285.15 227.586Z" fill="white" fill-opacity="0.55"/>
<path fill-rule="evenodd" clip-rule="evenodd" d="M316.834 227.586C316.834 230.348 319.073 232.586 321.834 232.586C324.595 232.586 326.834 230.348 326.834 227.586C326.834 224.824 324.595 222.586 321.834 222.586C319.073 222.586 316.834 224.824 316.834 227.586Z" fill="white" fill-opacity="0.55"/>
<path fill-rule="evenodd" clip-rule="evenodd" d="M348.518 227.586C348.518 230.348 350.756 232.586 353.518 232.586C356.278 232.586 358.518 230.348 358.518 227.586C358.518 224.824 356.278 222.586 353.518 222.586C350.756 222.586 348.518 224.824 348.518 227.586Z" fill="white" fill-opacity="0.55"/>
<path fill-rule="evenodd" clip-rule="evenodd" d="M380.2 227.586C380.2 230.348 382.439 232.586 385.2 232.586C387.962 232.586 390.2 230.348 390.2 227.586C390.2 224.824 387.962 222.586 385.2 222.586C382.439 222.586 380.2 224.824 380.2 227.586Z" fill="white" fill-opacity="0.55"/>
<path fill-rule="evenodd" clip-rule="evenodd" d="M411.883 227.586C411.883 230.348 414.122 232.586 416.883 232.586C419.645 232.586 421.883 230.348 421.883 227.586C421.883 224.824 419.645 222.586 416.883 222.586C414.122 222.586 411.883 224.824 411.883 227.586Z" fill="white" fill-opacity="0.55"/>
<path fill-rule="evenodd" clip-rule="evenodd" d="M443.566 227.586C443.566 230.348 445.806 232.586 448.566 232.586C451.328 232.586 453.566 230.348 453.566 227.586C453.566 224.824 451.328 222.586 448.566 222.586C445.806 222.586 443.566 224.824 443.566 227.586Z" fill="white" fill-opacity="0.55"/>
<path fill-rule="evenodd" clip-rule="evenodd" d="M470.25 227.586C470.25 230.348 472.489 232.586 475.25 232.586C478.011 232.586 480.25 230.348 480.25 227.586C480.25 224.824 478.011 222.586 475.25 222.586C472.489 222.586 470.25 224.824 470.25 227.586Z" fill="white" fill-opacity="0.55"/>
<path fill-rule="evenodd" clip-rule="evenodd" d="M496.933 227.586C496.933 230.348 499.172 232.586 501.933 232.586C504.694 232.586 506.933 230.348 506.933 227.586C506.933 224.824 504.694 222.586 501.933 222.586C499.172 222.586 496.933 224.824 496.933 227.586Z" fill="white" fill-opacity="0.55"/>
<path fill-rule="evenodd" clip-rule="evenodd" d="M0.00244141 195.902C0.00244141 198.664 2.24087 200.902 5.00244 200.902C7.76333 200.902 10.0024 198.664 10.0024 195.902C10.0024 193.141 7.76333 190.902 5.00244 190.902C2.24087 190.902 0.00244141 193.141 0.00244141 195.902Z" fill="white" fill-opacity="0.55"/>
<path fill-rule="evenodd" clip-rule="evenodd" d="M31.6855 195.902C31.6855 198.664 33.924 200.902 36.6855 200.902C39.4464 200.902 41.6855 198.664 41.6855 195.902C41.6855 193.141 39.4464 190.902 36.6855 190.902C33.924 190.902 31.6855 193.141 31.6855 195.902Z" fill="white" fill-opacity="0.55"/>
<path fill-rule="evenodd" clip-rule="evenodd" d="M63.3687 195.902C63.3687 198.664 65.6071 200.902 68.3687 200.902C71.1302 200.902 73.3687 198.664 73.3687 195.902C73.3687 193.141 71.1302 190.902 68.3687 190.902C65.6071 190.902 63.3687 193.141 63.3687 195.902Z" fill="white" fill-opacity="0.55"/>
<path fill-rule="evenodd" clip-rule="evenodd" d="M95.0518 195.902C95.0518 198.664 97.2909 200.902 100.052 200.902C102.813 200.902 105.052 198.664 105.052 195.902C105.052 193.141 102.813 190.902 100.052 190.902C97.2909 190.902 95.0518 193.141 95.0518 195.902Z" fill="white" fill-opacity="0.55"/>
<path fill-rule="evenodd" clip-rule="evenodd" d="M126.735 195.902C126.735 198.664 128.973 200.902 131.735 200.902C134.496 200.902 136.735 198.664 136.735 195.902C136.735 193.141 134.496 190.902 131.735 190.902C128.973 190.902 126.735 193.141 126.735 195.902Z" fill="white" fill-opacity="0.55"/>
<path fill-rule="evenodd" clip-rule="evenodd" d="M158.418 195.902C158.418 198.664 160.657 200.902 163.418 200.902C166.18 200.902 168.418 198.664 168.418 195.902C168.418 193.141 166.18 190.902 163.418 190.902C160.657 190.902 158.418 193.141 158.418 195.902Z" fill="white" fill-opacity="0.55"/>
<path fill-rule="evenodd" clip-rule="evenodd" d="M190.101 195.902C190.101 198.664 192.34 200.902 195.101 200.902C197.863 200.902 200.101 198.664 200.101 195.902C200.101 193.141 197.863 190.902 195.101 190.902C192.34 190.902 190.101 193.141 190.101 195.902Z" fill="white" fill-opacity="0.55"/>
<path fill-rule="evenodd" clip-rule="evenodd" d="M221.784 195.902C221.784 198.664 224.023 200.902 226.784 200.902C229.546 200.902 231.784 198.664 231.784 195.902C231.784 193.141 229.546 190.902 226.784 190.902C224.023 190.902 221.784 193.141 221.784 195.902Z" fill="white" fill-opacity="0.55"/>
<path fill-rule="evenodd" clip-rule="evenodd" d="M253.467 195.902C253.467 198.664 255.706 200.902 258.468 200.902C261.229 200.902 263.467 198.664 263.467 195.902C263.467 193.141 261.229 190.902 258.468 190.902C255.706 190.902 253.467 193.141 253.467 195.902Z" fill="white" fill-opacity="0.55"/>
<path fill-rule="evenodd" clip-rule="evenodd" d="M285.15 195.902C285.15 198.664 287.39 200.902 290.151 200.902C292.912 200.902 295.15 198.664 295.15 195.902C295.15 193.141 292.912 190.902 290.151 190.902C287.39 190.902 285.15 193.141 285.15 195.902Z" fill="white" fill-opacity="0.55"/>
<path fill-rule="evenodd" clip-rule="evenodd" d="M316.834 195.902C316.834 198.664 319.073 200.902 321.834 200.902C324.595 200.902 326.834 198.664 326.834 195.902C326.834 193.141 324.595 190.902 321.834 190.902C319.073 190.902 316.834 193.141 316.834 195.902Z" fill="white" fill-opacity="0.55"/>
<path fill-rule="evenodd" clip-rule="evenodd" d="M348.518 195.902C348.518 198.664 350.756 200.902 353.518 200.902C356.278 200.902 358.518 198.664 358.518 195.902C358.518 193.141 356.278 190.902 353.518 190.902C350.756 190.902 348.518 193.141 348.518 195.902Z" fill="white" fill-opacity="0.55"/>
<path fill-rule="evenodd" clip-rule="evenodd" d="M380.2 195.902C380.2 198.664 382.439 200.902 385.2 200.902C387.962 200.902 390.2 198.664 390.2 195.902C390.2 193.141 387.962 190.902 385.2 190.902C382.439 190.902 380.2 193.141 380.2 195.902Z" fill="white" fill-opacity="0.55"/>
<path fill-rule="evenodd" clip-rule="evenodd" d="M411.883 195.902C411.883 198.664 414.122 200.902 416.883 200.902C419.645 200.902 421.883 198.664 421.883 195.902C421.883 193.141 419.645 190.902 416.883 190.902C414.122 190.902 411.883 193.141 411.883 195.902Z" fill="white" fill-opacity="0.55"/>
<path fill-rule="evenodd" clip-rule="evenodd" d="M443.566 195.902C443.566 198.664 445.806 200.902 448.566 200.902C451.328 200.902 453.566 198.664 453.566 195.902C453.566 193.141 451.328 190.902 448.566 190.902C445.806 190.902 443.566 193.141 443.566 195.902Z" fill="white" fill-opacity="0.55"/>
<path fill-rule="evenodd" clip-rule="evenodd" d="M470.25 195.902C470.25 198.664 472.489 200.902 475.25 200.902C478.011 200.902 480.25 198.664 480.25 195.902C480.25 193.141 478.011 190.902 475.25 190.902C472.489 190.902 470.25 193.141 470.25 195.902Z" fill="white" fill-opacity="0.55"/>
<path fill-rule="evenodd" clip-rule="evenodd" d="M496.933 195.902C496.933 198.664 499.172 200.902 501.933 200.902C504.694 200.902 506.933 198.664 506.933 195.902C506.933 193.141 504.694 190.902 501.933 190.902C499.172 190.902 496.933 193.141 496.933 195.902Z" fill="white" fill-opacity="0.55"/>
<path fill-rule="evenodd" clip-rule="evenodd" d="M0.00244141 164.219C0.00244141 166.98 2.24087 169.219 5.00244 169.219C7.76333 169.219 10.0024 166.98 10.0024 164.219C10.0024 161.457 7.76333 159.219 5.00244 159.219C2.24087 159.219 0.00244141 161.457 0.00244141 164.219Z" fill="white" fill-opacity="0.55"/>
<path fill-rule="evenodd" clip-rule="evenodd" d="M31.6855 164.219C31.6855 166.98 33.924 169.219 36.6855 169.219C39.4464 169.219 41.6855 166.98 41.6855 164.219C41.6855 161.457 39.4464 159.219 36.6855 159.219C33.924 159.219 31.6855 161.457 31.6855 164.219Z" fill="white" fill-opacity="0.55"/>
<path fill-rule="evenodd" clip-rule="evenodd" d="M63.3687 164.219C63.3687 166.98 65.6071 169.219 68.3687 169.219C71.1302 169.219 73.3687 166.98 73.3687 164.219C73.3687 161.457 71.1302 159.219 68.3687 159.219C65.6071 159.219 63.3687 161.457 63.3687 164.219Z" fill="white" fill-opacity="0.55"/>
<path fill-rule="evenodd" clip-rule="evenodd" d="M95.0518 164.219C95.0518 166.98 97.2909 169.219 100.052 169.219C102.813 169.219 105.052 166.98 105.052 164.219C105.052 161.457 102.813 159.219 100.052 159.219C97.2909 159.219 95.0518 161.457 95.0518 164.219Z" fill="white" fill-opacity="0.55"/>
<path fill-rule="evenodd" clip-rule="evenodd" d="M126.735 164.219C126.735 166.98 128.973 169.219 131.735 169.219C134.496 169.219 136.735 166.98 136.735 164.219C136.735 161.457 134.496 159.219 131.735 159.219C128.973 159.219 126.735 161.457 126.735 164.219Z" fill="white" fill-opacity="0.55"/>
<path fill-rule="evenodd" clip-rule="evenodd" d="M158.418 164.219C158.418 166.98 160.657 169.219 163.418 169.219C166.18 169.219 168.418 166.98 168.418 164.219C168.418 161.457 166.18 159.219 163.418 159.219C160.657 159.219 158.418 161.457 158.418 164.219Z" fill="white" fill-opacity="0.55"/>
<path fill-rule="evenodd" clip-rule="evenodd" d="M190.101 164.219C190.101 166.98 192.34 169.219 195.101 169.219C197.863 169.219 200.101 166.98 200.101 164.219C200.101 161.457 197.863 159.219 195.101 159.219C192.34 159.219 190.101 161.457 190.101 164.219Z" fill="white" fill-opacity="0.55"/>
<path fill-rule="evenodd" clip-rule="evenodd" d="M221.784 164.219C221.784 166.98 224.023 169.219 226.784 169.219C229.546 169.219 231.784 166.98 231.784 164.219C231.784 161.457 229.546 159.219 226.784 159.219C224.023 159.219 221.784 161.457 221.784 164.219Z" fill="white" fill-opacity="0.55"/>
<path fill-rule="evenodd" clip-rule="evenodd" d="M253.467 164.219C253.467 166.98 255.706 169.219 258.468 169.219C261.229 169.219 263.467 166.98 263.467 164.219C263.467 161.457 261.229 159.219 258.468 159.219C255.706 159.219 253.467 161.457 253.467 164.219Z" fill="white" fill-opacity="0.55"/>
<path fill-rule="evenodd" clip-rule="evenodd" d="M285.15 164.219C285.15 166.98 287.39 169.219 290.151 169.219C292.912 169.219 295.15 166.98 295.15 164.219C295.15 161.457 292.912 159.219 290.151 159.219C287.39 159.219 285.15 161.457 285.15 164.219Z" fill="white" fill-opacity="0.55"/>
<path fill-rule="evenodd" clip-rule="evenodd" d="M316.834 164.219C316.834 166.98 319.073 169.219 321.834 169.219C324.595 169.219 326.834 166.98 326.834 164.219C326.834 161.457 324.595 159.219 321.834 159.219C319.073 159.219 316.834 161.457 316.834 164.219Z" fill="white" fill-opacity="0.55"/>
<path fill-rule="evenodd" clip-rule="evenodd" d="M348.518 164.219C348.518 166.98 350.756 169.219 353.518 169.219C356.278 169.219 358.518 166.98 358.518 164.219C358.518 161.457 356.278 159.219 353.518 159.219C350.756 159.219 348.518 161.457 348.518 164.219Z" fill="white" fill-opacity="0.55"/>
<path fill-rule="evenodd" clip-rule="evenodd" d="M380.2 164.219C380.2 166.98 382.439 169.219 385.2 169.219C387.962 169.219 390.2 166.98 390.2 164.219C390.2 161.457 387.962 159.219 385.2 159.219C382.439 159.219 380.2 161.457 380.2 164.219Z" fill="white" fill-opacity="0.55"/>
<path fill-rule="evenodd" clip-rule="evenodd" d="M411.883 164.219C411.883 166.98 414.122 169.219 416.883 169.219C419.645 169.219 421.883 166.98 421.883 164.219C421.883 161.457 419.645 159.219 416.883 159.219C414.122 159.219 411.883 161.457 411.883 164.219Z" fill="white" fill-opacity="0.55"/>
<path fill-rule="evenodd" clip-rule="evenodd" d="M443.566 164.219C443.566 166.98 445.806 169.219 448.566 169.219C451.328 169.219 453.566 166.98 453.566 164.219C453.566 161.457 451.328 159.219 448.566 159.219C445.806 159.219 443.566 161.457 443.566 164.219Z" fill="white" fill-opacity="0.55"/>
<path fill-rule="evenodd" clip-rule="evenodd" d="M470.25 164.219C470.25 166.98 472.489 169.219 475.25 169.219C478.011 169.219 480.25 166.98 480.25 164.219C480.25 161.457 478.011 159.219 475.25 159.219C472.489 159.219 470.25 161.457 470.25 164.219Z" fill="white" fill-opacity="0.55"/>
<path fill-rule="evenodd" clip-rule="evenodd" d="M496.933 164.219C496.933 166.98 499.172 169.219 501.933 169.219C504.694 169.219 506.933 166.98 506.933 164.219C506.933 161.457 504.694 159.219 501.933 159.219C499.172 159.219 496.933 161.457 496.933 164.219Z" fill="white" fill-opacity="0.55"/>
<path fill-rule="evenodd" clip-rule="evenodd" d="M0.00244141 132.535C0.00244141 135.296 2.24087 137.535 5.00244 137.535C7.76333 137.535 10.0024 135.296 10.0024 132.535C10.0024 129.774 7.76333 127.535 5.00244 127.535C2.24087 127.535 0.00244141 129.774 0.00244141 132.535Z" fill="white" fill-opacity="0.55"/>
<path fill-rule="evenodd" clip-rule="evenodd" d="M31.6855 132.535C31.6855 135.296 33.924 137.535 36.6855 137.535C39.4464 137.535 41.6855 135.296 41.6855 132.535C41.6855 129.774 39.4464 127.535 36.6855 127.535C33.924 127.535 31.6855 129.774 31.6855 132.535Z" fill="white" fill-opacity="0.55"/>
<path fill-rule="evenodd" clip-rule="evenodd" d="M63.3687 132.535C63.3687 135.296 65.6071 137.535 68.3687 137.535C71.1302 137.535 73.3687 135.296 73.3687 132.535C73.3687 129.774 71.1302 127.535 68.3687 127.535C65.6071 127.535 63.3687 129.774 63.3687 132.535Z" fill="white" fill-opacity="0.55"/>
<path fill-rule="evenodd" clip-rule="evenodd" d="M95.0518 132.535C95.0518 135.296 97.2909 137.535 100.052 137.535C102.813 137.535 105.052 135.296 105.052 132.535C105.052 129.774 102.813 127.535 100.052 127.535C97.2909 127.535 95.0518 129.774 95.0518 132.535Z" fill="white" fill-opacity="0.55"/>
<path fill-rule="evenodd" clip-rule="evenodd" d="M126.735 132.535C126.735 135.296 128.973 137.535 131.735 137.535C134.496 137.535 136.735 135.296 136.735 132.535C136.735 129.774 134.496 127.535 131.735 127.535C128.973 127.535 126.735 129.774 126.735 132.535Z" fill="white" fill-opacity="0.55"/>
<path fill-rule="evenodd" clip-rule="evenodd" d="M158.418 132.535C158.418 135.296 160.657 137.535 163.418 137.535C166.18 137.535 168.418 135.296 168.418 132.535C168.418 129.774 166.18 127.535 163.418 127.535C160.657 127.535 158.418 129.774 158.418 132.535Z" fill="white" fill-opacity="0.55"/>
<path fill-rule="evenodd" clip-rule="evenodd" d="M190.101 132.535C190.101 135.296 192.34 137.535 195.101 137.535C197.863 137.535 200.101 135.296 200.101 132.535C200.101 129.774 197.863 127.535 195.101 127.535C192.34 127.535 190.101 129.774 190.101 132.535Z" fill="white" fill-opacity="0.55"/>
<path fill-rule="evenodd" clip-rule="evenodd" d="M221.784 132.535C221.784 135.296 224.023 137.535 226.784 137.535C229.546 137.535 231.784 135.296 231.784 132.535C231.784 129.774 229.546 127.535 226.784 127.535C224.023 127.535 221.784 129.774 221.784 132.535Z" fill="white" fill-opacity="0.55"/>
<path fill-rule="evenodd" clip-rule="evenodd" d="M253.467 132.535C253.467 135.296 255.706 137.535 258.468 137.535C261.229 137.535 263.467 135.296 263.467 132.535C263.467 129.774 261.229 127.535 258.468 127.535C255.706 127.535 253.467 129.774 253.467 132.535Z" fill="white" fill-opacity="0.55"/>
<path fill-rule="evenodd" clip-rule="evenodd" d="M285.15 132.535C285.15 135.296 287.39 137.535 290.151 137.535C292.912 137.535 295.15 135.296 295.15 132.535C295.15 129.774 292.912 127.535 290.151 127.535C287.39 127.535 285.15 129.774 285.15 132.535Z" fill="white" fill-opacity="0.55"/>
<path fill-rule="evenodd" clip-rule="evenodd" d="M316.834 132.535C316.834 135.296 319.073 137.535 321.834 137.535C324.595 137.535 326.834 135.296 326.834 132.535C326.834 129.774 324.595 127.535 321.834 127.535C319.073 127.535 316.834 129.774 316.834 132.535Z" fill="white" fill-opacity="0.55"/>
<path fill-rule="evenodd" clip-rule="evenodd" d="M348.518 132.535C348.518 135.296 350.756 137.535 353.518 137.535C356.278 137.535 358.518 135.296 358.518 132.535C358.518 129.774 356.278 127.535 353.518 127.535C350.756 127.535 348.518 129.774 348.518 132.535Z" fill="white" fill-opacity="0.55"/>
<path fill-rule="evenodd" clip-rule="evenodd" d="M380.2 132.535C380.2 135.296 382.439 137.535 385.2 137.535C387.962 137.535 390.2 135.296 390.2 132.535C390.2 129.774 387.962 127.535 385.2 127.535C382.439 127.535 380.2 129.774 380.2 132.535Z" fill="white" fill-opacity="0.55"/>
<path fill-rule="evenodd" clip-rule="evenodd" d="M411.883 132.535C411.883 135.296 414.122 137.535 416.883 137.535C419.645 137.535 421.883 135.296 421.883 132.535C421.883 129.774 419.645 127.535 416.883 127.535C414.122 127.535 411.883 129.774 411.883 132.535Z" fill="white" fill-opacity="0.55"/>
<path fill-rule="evenodd" clip-rule="evenodd" d="M443.566 132.535C443.566 135.296 445.806 137.535 448.566 137.535C451.328 137.535 453.566 135.296 453.566 132.535C453.566 129.774 451.328 127.535 448.566 127.535C445.806 127.535 443.566 129.774 443.566 132.535Z" fill="white" fill-opacity="0.55"/>
<path fill-rule="evenodd" clip-rule="evenodd" d="M470.25 132.535C470.25 135.296 472.489 137.535 475.25 137.535C478.011 137.535 480.25 135.296 480.25 132.535C480.25 129.774 478.011 127.535 475.25 127.535C472.489 127.535 470.25 129.774 470.25 132.535Z" fill="white" fill-opacity="0.55"/>
<path fill-rule="evenodd" clip-rule="evenodd" d="M496.933 132.535C496.933 135.296 499.172 137.535 501.933 137.535C504.694 137.535 506.933 135.296 506.933 132.535C506.933 129.774 504.694 127.535 501.933 127.535C499.172 127.535 496.933 129.774 496.933 132.535Z" fill="white" fill-opacity="0.55"/>
<path fill-rule="evenodd" clip-rule="evenodd" d="M0.00244141 100.852C0.00244141 103.613 2.24087 105.852 5.00244 105.852C7.76333 105.852 10.0024 103.613 10.0024 100.852C10.0024 98.0907 7.76333 95.8517 5.00244 95.8517C2.24087 95.8517 0.00244141 98.0907 0.00244141 100.852Z" fill="white" fill-opacity="0.55"/>
<path fill-rule="evenodd" clip-rule="evenodd" d="M31.6855 100.852C31.6855 103.613 33.924 105.852 36.6855 105.852C39.4464 105.852 41.6855 103.613 41.6855 100.852C41.6855 98.0907 39.4464 95.8517 36.6855 95.8517C33.924 95.8517 31.6855 98.0907 31.6855 100.852Z" fill="white" fill-opacity="0.55"/>
<path fill-rule="evenodd" clip-rule="evenodd" d="M63.3687 100.852C63.3687 103.613 65.6071 105.852 68.3687 105.852C71.1302 105.852 73.3687 103.613 73.3687 100.852C73.3687 98.0907 71.1302 95.8517 68.3687 95.8517C65.6071 95.8517 63.3687 98.0907 63.3687 100.852Z" fill="white" fill-opacity="0.55"/>
<path fill-rule="evenodd" clip-rule="evenodd" d="M95.0518 100.852C95.0518 103.613 97.2909 105.852 100.052 105.852C102.813 105.852 105.052 103.613 105.052 100.852C105.052 98.0907 102.813 95.8517 100.052 95.8517C97.2909 95.8517 95.0518 98.0907 95.0518 100.852Z" fill="white" fill-opacity="0.55"/>
<path fill-rule="evenodd" clip-rule="evenodd" d="M126.735 100.852C126.735 103.613 128.973 105.852 131.735 105.852C134.496 105.852 136.735 103.613 136.735 100.852C136.735 98.0907 134.496 95.8517 131.735 95.8517C128.973 95.8517 126.735 98.0907 126.735 100.852Z" fill="white" fill-opacity="0.55"/>
<path fill-rule="evenodd" clip-rule="evenodd" d="M158.418 100.852C158.418 103.613 160.657 105.852 163.418 105.852C166.18 105.852 168.418 103.613 168.418 100.852C168.418 98.0907 166.18 95.8517 163.418 95.8517C160.657 95.8517 158.418 98.0907 158.418 100.852Z" fill="white" fill-opacity="0.55"/>
<path fill-rule="evenodd" clip-rule="evenodd" d="M190.101 100.852C190.101 103.613 192.34 105.852 195.101 105.852C197.863 105.852 200.101 103.613 200.101 100.852C200.101 98.0907 197.863 95.8517 195.101 95.8517C192.34 95.8517 190.101 98.0907 190.101 100.852Z" fill="white" fill-opacity="0.55"/>
<path fill-rule="evenodd" clip-rule="evenodd" d="M221.784 100.852C221.784 103.613 224.023 105.852 226.784 105.852C229.546 105.852 231.784 103.613 231.784 100.852C231.784 98.0907 229.546 95.8517 226.784 95.8517C224.023 95.8517 221.784 98.0907 221.784 100.852Z" fill="white" fill-opacity="0.55"/>
<path fill-rule="evenodd" clip-rule="evenodd" d="M253.467 100.852C253.467 103.613 255.706 105.852 258.468 105.852C261.229 105.852 263.467 103.613 263.467 100.852C263.467 98.0907 261.229 95.8517 258.468 95.8517C255.706 95.8517 253.467 98.0907 253.467 100.852Z" fill="white" fill-opacity="0.55"/>
<path fill-rule="evenodd" clip-rule="evenodd" d="M285.15 100.852C285.15 103.613 287.39 105.852 290.151 105.852C292.912 105.852 295.15 103.613 295.15 100.852C295.15 98.0907 292.912 95.8517 290.151 95.8517C287.39 95.8517 285.15 98.0907 285.15 100.852Z" fill="white" fill-opacity="0.55"/>
<path fill-rule="evenodd" clip-rule="evenodd" d="M316.834 100.852C316.834 103.613 319.073 105.852 321.834 105.852C324.595 105.852 326.834 103.613 326.834 100.852C326.834 98.0907 324.595 95.8517 321.834 95.8517C319.073 95.8517 316.834 98.0907 316.834 100.852Z" fill="white" fill-opacity="0.55"/>
<path fill-rule="evenodd" clip-rule="evenodd" d="M348.518 100.852C348.518 103.613 350.756 105.852 353.518 105.852C356.278 105.852 358.518 103.613 358.518 100.852C358.518 98.0907 356.278 95.8517 353.518 95.8517C350.756 95.8517 348.518 98.0907 348.518 100.852Z" fill="white" fill-opacity="0.55"/>
<path fill-rule="evenodd" clip-rule="evenodd" d="M380.2 100.852C380.2 103.613 382.439 105.852 385.2 105.852C387.962 105.852 390.2 103.613 390.2 100.852C390.2 98.0907 387.962 95.8517 385.2 95.8517C382.439 95.8517 380.2 98.0907 380.2 100.852Z" fill="white" fill-opacity="0.55"/>
<path fill-rule="evenodd" clip-rule="evenodd" d="M411.883 100.852C411.883 103.613 414.122 105.852 416.883 105.852C419.645 105.852 421.883 103.613 421.883 100.852C421.883 98.0907 419.645 95.8517 416.883 95.8517C414.122 95.8517 411.883 98.0907 411.883 100.852Z" fill="white" fill-opacity="0.55"/>
<path fill-rule="evenodd" clip-rule="evenodd" d="M443.566 100.852C443.566 103.613 445.806 105.852 448.566 105.852C451.328 105.852 453.566 103.613 453.566 100.852C453.566 98.0907 451.328 95.8517 448.566 95.8517C445.806 95.8517 443.566 98.0907 443.566 100.852Z" fill="white" fill-opacity="0.55"/>
<path fill-rule="evenodd" clip-rule="evenodd" d="M470.25 100.852C470.25 103.613 472.489 105.852 475.25 105.852C478.011 105.852 480.25 103.613 480.25 100.852C480.25 98.0907 478.011 95.8517 475.25 95.8517C472.489 95.8517 470.25 98.0907 470.25 100.852Z" fill="white" fill-opacity="0.55"/>
<path fill-rule="evenodd" clip-rule="evenodd" d="M496.933 100.852C496.933 103.613 499.172 105.852 501.933 105.852C504.694 105.852 506.933 103.613 506.933 100.852C506.933 98.0907 504.694 95.8517 501.933 95.8517C499.172 95.8517 496.933 98.0907 496.933 100.852Z" fill="white" fill-opacity="0.55"/>
<path fill-rule="evenodd" clip-rule="evenodd" d="M0.00244141 69.1677C0.00244141 71.9291 2.24087 74.1681 5.00244 74.1681C7.76333 74.1681 10.0024 71.9291 10.0024 69.1677C10.0024 66.4071 7.76333 64.1681 5.00244 64.1681C2.24087 64.1681 0.00244141 66.4071 0.00244141 69.1677Z" fill="white" fill-opacity="0.55"/>
<path fill-rule="evenodd" clip-rule="evenodd" d="M31.6855 69.1677C31.6855 71.9291 33.924 74.1681 36.6855 74.1681C39.4464 74.1681 41.6855 71.9291 41.6855 69.1677C41.6855 66.4071 39.4464 64.1681 36.6855 64.1681C33.924 64.1681 31.6855 66.4071 31.6855 69.1677Z" fill="white" fill-opacity="0.55"/>
<path fill-rule="evenodd" clip-rule="evenodd" d="M63.3687 69.1677C63.3687 71.9291 65.6071 74.1681 68.3687 74.1681C71.1302 74.1681 73.3687 71.9291 73.3687 69.1677C73.3687 66.4071 71.1302 64.1681 68.3687 64.1681C65.6071 64.1681 63.3687 66.4071 63.3687 69.1677Z" fill="white" fill-opacity="0.55"/>
<path fill-rule="evenodd" clip-rule="evenodd" d="M95.0518 69.1677C95.0518 71.9291 97.2909 74.1681 100.052 74.1681C102.813 74.1681 105.052 71.9291 105.052 69.1677C105.052 66.4071 102.813 64.1681 100.052 64.1681C97.2909 64.1681 95.0518 66.4071 95.0518 69.1677Z" fill="white" fill-opacity="0.55"/>
<path fill-rule="evenodd" clip-rule="evenodd" d="M126.735 69.1677C126.735 71.9291 128.973 74.1681 131.735 74.1681C134.496 74.1681 136.735 71.9291 136.735 69.1677C136.735 66.4071 134.496 64.1681 131.735 64.1681C128.973 64.1681 126.735 66.4071 126.735 69.1677Z" fill="white" fill-opacity="0.55"/>
<path fill-rule="evenodd" clip-rule="evenodd" d="M158.418 69.1677C158.418 71.9291 160.657 74.1681 163.418 74.1681C166.18 74.1681 168.418 71.9291 168.418 69.1677C168.418 66.4071 166.18 64.1681 163.418 64.1681C160.657 64.1681 158.418 66.4071 158.418 69.1677Z" fill="white" fill-opacity="0.55"/>
<path fill-rule="evenodd" clip-rule="evenodd" d="M190.101 69.1677C190.101 71.9291 192.34 74.1681 195.101 74.1681C197.863 74.1681 200.101 71.9291 200.101 69.1677C200.101 66.4071 197.863 64.1681 195.101 64.1681C192.34 64.1681 190.101 66.4071 190.101 69.1677Z" fill="white" fill-opacity="0.55"/>
<path fill-rule="evenodd" clip-rule="evenodd" d="M221.784 69.1677C221.784 71.9291 224.023 74.1681 226.784 74.1681C229.546 74.1681 231.784 71.9291 231.784 69.1677C231.784 66.4071 229.546 64.1681 226.784 64.1681C224.023 64.1681 221.784 66.4071 221.784 69.1677Z" fill="white" fill-opacity="0.55"/>
<path fill-rule="evenodd" clip-rule="evenodd" d="M253.467 69.1677C253.467 71.9291 255.706 74.1681 258.468 74.1681C261.229 74.1681 263.467 71.9291 263.467 69.1677C263.467 66.4071 261.229 64.1681 258.468 64.1681C255.706 64.1681 253.467 66.4071 253.467 69.1677Z" fill="white" fill-opacity="0.55"/>
<path fill-rule="evenodd" clip-rule="evenodd" d="M285.15 69.1677C285.15 71.9291 287.39 74.1681 290.151 74.1681C292.912 74.1681 295.15 71.9291 295.15 69.1677C295.15 66.4071 292.912 64.1681 290.151 64.1681C287.39 64.1681 285.15 66.4071 285.15 69.1677Z" fill="white" fill-opacity="0.55"/>
<path fill-rule="evenodd" clip-rule="evenodd" d="M316.834 69.1677C316.834 71.9291 319.073 74.1681 321.834 74.1681C324.595 74.1681 326.834 71.9291 326.834 69.1677C326.834 66.4071 324.595 64.1681 321.834 64.1681C319.073 64.1681 316.834 66.4071 316.834 69.1677Z" fill="white" fill-opacity="0.55"/>
<path fill-rule="evenodd" clip-rule="evenodd" d="M348.518 69.1677C348.518 71.9291 350.756 74.1681 353.518 74.1681C356.278 74.1681 358.518 71.9291 358.518 69.1677C358.518 66.4071 356.278 64.1681 353.518 64.1681C350.756 64.1681 348.518 66.4071 348.518 69.1677Z" fill="white" fill-opacity="0.55"/>
<path fill-rule="evenodd" clip-rule="evenodd" d="M380.2 69.1677C380.2 71.9291 382.439 74.1681 385.2 74.1681C387.962 74.1681 390.2 71.9291 390.2 69.1677C390.2 66.4071 387.962 64.1681 385.2 64.1681C382.439 64.1681 380.2 66.4071 380.2 69.1677Z" fill="white" fill-opacity="0.55"/>
<path fill-rule="evenodd" clip-rule="evenodd" d="M411.883 69.1677C411.883 71.9291 414.122 74.1681 416.883 74.1681C419.645 74.1681 421.883 71.9291 421.883 69.1677C421.883 66.4071 419.645 64.1681 416.883 64.1681C414.122 64.1681 411.883 66.4071 411.883 69.1677Z" fill="white" fill-opacity="0.55"/>
<path fill-rule="evenodd" clip-rule="evenodd" d="M443.566 69.1677C443.566 71.9291 445.806 74.1681 448.566 74.1681C451.328 74.1681 453.566 71.9291 453.566 69.1677C453.566 66.4071 451.328 64.1681 448.566 64.1681C445.806 64.1681 443.566 66.4071 443.566 69.1677Z" fill="white" fill-opacity="0.55"/>
<path fill-rule="evenodd" clip-rule="evenodd" d="M470.25 69.1677C470.25 71.9291 472.489 74.1681 475.25 74.1681C478.011 74.1681 480.25 71.9291 480.25 69.1677C480.25 66.4071 478.011 64.1681 475.25 64.1681C472.489 64.1681 470.25 66.4071 470.25 69.1677Z" fill="white" fill-opacity="0.55"/>
<path fill-rule="evenodd" clip-rule="evenodd" d="M496.933 69.1677C496.933 71.9291 499.172 74.1681 501.933 74.1681C504.694 74.1681 506.933 71.9291 506.933 69.1677C506.933 66.4071 504.694 64.1681 501.933 64.1681C499.172 64.1681 496.933 66.4071 496.933 69.1677Z" fill="white" fill-opacity="0.55"/>
<path fill-rule="evenodd" clip-rule="evenodd" d="M0.00244141 37.4842C0.00244141 40.2455 2.24087 42.4845 5.00244 42.4845C7.76333 42.4845 10.0024 40.2455 10.0024 37.4842C10.0024 34.7235 7.76333 32.4845 5.00244 32.4845C2.24087 32.4845 0.00244141 34.7235 0.00244141 37.4842Z" fill="white" fill-opacity="0.55"/>
<path fill-rule="evenodd" clip-rule="evenodd" d="M31.6855 37.4842C31.6855 40.2455 33.924 42.4845 36.6855 42.4845C39.4464 42.4845 41.6855 40.2455 41.6855 37.4842C41.6855 34.7235 39.4464 32.4845 36.6855 32.4845C33.924 32.4845 31.6855 34.7235 31.6855 37.4842Z" fill="white" fill-opacity="0.55"/>
<path fill-rule="evenodd" clip-rule="evenodd" d="M63.3687 37.4842C63.3687 40.2455 65.6071 42.4845 68.3687 42.4845C71.1302 42.4845 73.3687 40.2455 73.3687 37.4842C73.3687 34.7235 71.1302 32.4845 68.3687 32.4845C65.6071 32.4845 63.3687 34.7235 63.3687 37.4842Z" fill="white" fill-opacity="0.55"/>
<path fill-rule="evenodd" clip-rule="evenodd" d="M95.0518 37.4842C95.0518 40.2455 97.2909 42.4845 100.052 42.4845C102.813 42.4845 105.052 40.2455 105.052 37.4842C105.052 34.7235 102.813 32.4845 100.052 32.4845C97.2909 32.4845 95.0518 34.7235 95.0518 37.4842Z" fill="white" fill-opacity="0.55"/>
<path fill-rule="evenodd" clip-rule="evenodd" d="M126.735 37.4842C126.735 40.2455 128.973 42.4845 131.735 42.4845C134.496 42.4845 136.735 40.2455 136.735 37.4842C136.735 34.7235 134.496 32.4845 131.735 32.4845C128.973 32.4845 126.735 34.7235 126.735 37.4842Z" fill="white" fill-opacity="0.55"/>
<path fill-rule="evenodd" clip-rule="evenodd" d="M158.418 37.4842C158.418 40.2455 160.657 42.4845 163.418 42.4845C166.18 42.4845 168.418 40.2455 168.418 37.4842C168.418 34.7235 166.18 32.4845 163.418 32.4845C160.657 32.4845 158.418 34.7235 158.418 37.4842Z" fill="white" fill-opacity="0.55"/>
<path fill-rule="evenodd" clip-rule="evenodd" d="M190.101 37.4842C190.101 40.2455 192.34 42.4845 195.101 42.4845C197.863 42.4845 200.101 40.2455 200.101 37.4842C200.101 34.7235 197.863 32.4845 195.101 32.4845C192.34 32.4845 190.101 34.7235 190.101 37.4842Z" fill="white" fill-opacity="0.55"/>
<path fill-rule="evenodd" clip-rule="evenodd" d="M221.784 37.4842C221.784 40.2455 224.023 42.4845 226.784 42.4845C229.546 42.4845 231.784 40.2455 231.784 37.4842C231.784 34.7235 229.546 32.4845 226.784 32.4845C224.023 32.4845 221.784 34.7235 221.784 37.4842Z" fill="white" fill-opacity="0.55"/>
<path fill-rule="evenodd" clip-rule="evenodd" d="M253.467 37.4842C253.467 40.2455 255.706 42.4845 258.468 42.4845C261.229 42.4845 263.467 40.2455 263.467 37.4842C263.467 34.7235 261.229 32.4845 258.468 32.4845C255.706 32.4845 253.467 34.7235 253.467 37.4842Z" fill="white" fill-opacity="0.55"/>
<path fill-rule="evenodd" clip-rule="evenodd" d="M285.15 37.4842C285.15 40.2455 287.39 42.4845 290.151 42.4845C292.912 42.4845 295.15 40.2455 295.15 37.4842C295.15 34.7235 292.912 32.4845 290.151 32.4845C287.39 32.4845 285.15 34.7235 285.15 37.4842Z" fill="white" fill-opacity="0.55"/>
<path fill-rule="evenodd" clip-rule="evenodd" d="M316.834 37.4842C316.834 40.2455 319.073 42.4845 321.834 42.4845C324.595 42.4845 326.834 40.2455 326.834 37.4842C326.834 34.7235 324.595 32.4845 321.834 32.4845C319.073 32.4845 316.834 34.7235 316.834 37.4842Z" fill="white" fill-opacity="0.55"/>
<path fill-rule="evenodd" clip-rule="evenodd" d="M348.518 37.4842C348.518 40.2455 350.756 42.4845 353.518 42.4845C356.278 42.4845 358.518 40.2455 358.518 37.4842C358.518 34.7235 356.278 32.4845 353.518 32.4845C350.756 32.4845 348.518 34.7235 348.518 37.4842Z" fill="white" fill-opacity="0.55"/>
<path fill-rule="evenodd" clip-rule="evenodd" d="M380.2 37.4842C380.2 40.2455 382.439 42.4845 385.2 42.4845C387.962 42.4845 390.2 40.2455 390.2 37.4842C390.2 34.7235 387.962 32.4845 385.2 32.4845C382.439 32.4845 380.2 34.7235 380.2 37.4842Z" fill="white" fill-opacity="0.55"/>
<path fill-rule="evenodd" clip-rule="evenodd" d="M411.883 37.4842C411.883 40.2455 414.122 42.4845 416.883 42.4845C419.645 42.4845 421.883 40.2455 421.883 37.4842C421.883 34.7235 419.645 32.4845 416.883 32.4845C414.122 32.4845 411.883 34.7235 411.883 37.4842Z" fill="white" fill-opacity="0.55"/>
<path fill-rule="evenodd" clip-rule="evenodd" d="M443.566 37.4842C443.566 40.2455 445.806 42.4845 448.566 42.4845C451.328 42.4845 453.566 40.2455 453.566 37.4842C453.566 34.7235 451.328 32.4845 448.566 32.4845C445.806 32.4845 443.566 34.7235 443.566 37.4842Z" fill="white" fill-opacity="0.55"/>
<path fill-rule="evenodd" clip-rule="evenodd" d="M470.25 37.4842C470.25 40.2455 472.489 42.4845 475.25 42.4845C478.011 42.4845 480.25 40.2455 480.25 37.4842C480.25 34.7235 478.011 32.4845 475.25 32.4845C472.489 32.4845 470.25 34.7235 470.25 37.4842Z" fill="white" fill-opacity="0.55"/>
<path fill-rule="evenodd" clip-rule="evenodd" d="M496.933 37.4842C496.933 40.2455 499.172 42.4845 501.933 42.4845C504.694 42.4845 506.933 40.2455 506.933 37.4842C506.933 34.7235 504.694 32.4845 501.933 32.4845C499.172 32.4845 496.933 34.7235 496.933 37.4842Z" fill="white" fill-opacity="0.55"/>
<path fill-rule="evenodd" clip-rule="evenodd" d="M0.00244141 5.8009C0.00244141 8.56248 2.24087 10.8009 5.00244 10.8009C7.76333 10.8009 10.0024 8.56248 10.0024 5.8009C10.0024 3.04002 7.76333 0.800904 5.00244 0.800904C2.24087 0.800904 0.00244141 3.04002 0.00244141 5.8009Z" fill="white" fill-opacity="0.55"/>
<path fill-rule="evenodd" clip-rule="evenodd" d="M31.6855 5.8009C31.6855 8.56248 33.924 10.8009 36.6855 10.8009C39.4464 10.8009 41.6855 8.56248 41.6855 5.8009C41.6855 3.04002 39.4464 0.800904 36.6855 0.800904C33.924 0.800904 31.6855 3.04002 31.6855 5.8009Z" fill="white" fill-opacity="0.55"/>
<path fill-rule="evenodd" clip-rule="evenodd" d="M63.3687 5.8009C63.3687 8.56248 65.6071 10.8009 68.3687 10.8009C71.1302 10.8009 73.3687 8.56248 73.3687 5.8009C73.3687 3.04002 71.1302 0.800904 68.3687 0.800904C65.6071 0.800904 63.3687 3.04002 63.3687 5.8009Z" fill="white" fill-opacity="0.55"/>
<path fill-rule="evenodd" clip-rule="evenodd" d="M95.0518 5.8009C95.0518 8.56248 97.2909 10.8009 100.052 10.8009C102.813 10.8009 105.052 8.56248 105.052 5.8009C105.052 3.04002 102.813 0.800904 100.052 0.800904C97.2909 0.800904 95.0518 3.04002 95.0518 5.8009Z" fill="white" fill-opacity="0.55"/>
<path fill-rule="evenodd" clip-rule="evenodd" d="M126.735 5.8009C126.735 8.56248 128.973 10.8009 131.735 10.8009C134.496 10.8009 136.735 8.56248 136.735 5.8009C136.735 3.04002 134.496 0.800904 131.735 0.800904C128.973 0.800904 126.735 3.04002 126.735 5.8009Z" fill="white" fill-opacity="0.55"/>
<path fill-rule="evenodd" clip-rule="evenodd" d="M158.418 5.8009C158.418 8.56248 160.657 10.8009 163.418 10.8009C166.18 10.8009 168.418 8.56248 168.418 5.8009C168.418 3.04002 166.18 0.800904 163.418 0.800904C160.657 0.800904 158.418 3.04002 158.418 5.8009Z" fill="white" fill-opacity="0.55"/>
<path fill-rule="evenodd" clip-rule="evenodd" d="M190.101 5.8009C190.101 8.56248 192.34 10.8009 195.101 10.8009C197.863 10.8009 200.101 8.56248 200.101 5.8009C200.101 3.04002 197.863 0.800904 195.101 0.800904C192.34 0.800904 190.101 3.04002 190.101 5.8009Z" fill="white" fill-opacity="0.55"/>
<path fill-rule="evenodd" clip-rule="evenodd" d="M221.784 5.8009C221.784 8.56248 224.023 10.8009 226.784 10.8009C229.546 10.8009 231.784 8.56248 231.784 5.8009C231.784 3.04002 229.546 0.800904 226.784 0.800904C224.023 0.800904 221.784 3.04002 221.784 5.8009Z" fill="white" fill-opacity="0.55"/>
<path fill-rule="evenodd" clip-rule="evenodd" d="M253.467 5.8009C253.467 8.56248 255.706 10.8009 258.468 10.8009C261.229 10.8009 263.467 8.56248 263.467 5.8009C263.467 3.04002 261.229 0.800904 258.468 0.800904C255.706 0.800904 253.467 3.04002 253.467 5.8009Z" fill="white" fill-opacity="0.55"/>
<path fill-rule="evenodd" clip-rule="evenodd" d="M285.15 5.8009C285.15 8.56248 287.39 10.8009 290.151 10.8009C292.912 10.8009 295.15 8.56248 295.15 5.8009C295.15 3.04002 292.912 0.800904 290.151 0.800904C287.39 0.800904 285.15 3.04002 285.15 5.8009Z" fill="white" fill-opacity="0.55"/>
<path fill-rule="evenodd" clip-rule="evenodd" d="M316.834 5.8009C316.834 8.56248 319.073 10.8009 321.834 10.8009C324.595 10.8009 326.834 8.56248 326.834 5.8009C326.834 3.04002 324.595 0.800904 321.834 0.800904C319.073 0.800904 316.834 3.04002 316.834 5.8009Z" fill="white" fill-opacity="0.55"/>
<path fill-rule="evenodd" clip-rule="evenodd" d="M348.518 5.8009C348.518 8.56248 350.756 10.8009 353.518 10.8009C356.278 10.8009 358.518 8.56248 358.518 5.8009C358.518 3.04002 356.278 0.800904 353.518 0.800904C350.756 0.800904 348.518 3.04002 348.518 5.8009Z" fill="white" fill-opacity="0.55"/>
<path fill-rule="evenodd" clip-rule="evenodd" d="M380.2 5.8009C380.2 8.56248 382.439 10.8009 385.2 10.8009C387.962 10.8009 390.2 8.56248 390.2 5.8009C390.2 3.04002 387.962 0.800904 385.2 0.800904C382.439 0.800904 380.2 3.04002 380.2 5.8009Z" fill="white" fill-opacity="0.55"/>
<path fill-rule="evenodd" clip-rule="evenodd" d="M411.883 5.8009C411.883 8.56248 414.122 10.8009 416.883 10.8009C419.645 10.8009 421.883 8.56248 421.883 5.8009C421.883 3.04002 419.645 0.800904 416.883 0.800904C414.122 0.800904 411.883 3.04002 411.883 5.8009Z" fill="white" fill-opacity="0.55"/>
<path fill-rule="evenodd" clip-rule="evenodd" d="M443.566 5.8009C443.566 8.56248 445.806 10.8009 448.566 10.8009C451.328 10.8009 453.566 8.56248 453.566 5.8009C453.566 3.04002 451.328 0.800904 448.566 0.800904C445.806 0.800904 443.566 3.04002 443.566 5.8009Z" fill="white" fill-opacity="0.55"/>
<path fill-rule="evenodd" clip-rule="evenodd" d="M470.25 5.8009C470.25 8.56248 472.489 10.8009 475.25 10.8009C478.011 10.8009 480.25 8.56248 480.25 5.8009C480.25 3.04002 478.011 0.800904 475.25 0.800904C472.489 0.800904 470.25 3.04002 470.25 5.8009Z" fill="white" fill-opacity="0.55"/>
<path fill-rule="evenodd" clip-rule="evenodd" d="M496.933 5.8009C496.933 8.56248 499.172 10.8009 501.933 10.8009C504.694 10.8009 506.933 8.56248 506.933 5.8009C506.933 3.04002 504.694 0.800904 501.933 0.800904C499.172 0.800904 496.933 3.04002 496.933 5.8009Z" fill="white" fill-opacity="0.55"/>
</g>
</svg>
